<svg width="265" height="113" viewBox="0 0 265 113" fill="none" xmlns="http://www.w3.org/2000/svg">
<path d="M200.826 78.0125C200.552 77.803 200.11 77.3501 199.787 76.9864C199.737 76.9359 198.825 75.5676 198.645 75.1461C198.486 74.7823 198.366 74.5198 198.25 74.2163C197.421 72.07 197.442 69.9575 197.902 67.6523C198.327 65.5012 198.731 65.4073 199.833 62.4541C199.903 62.2927 199.936 62.153 199.96 61.9747C200.006 61.5701 199.352 58.8481 199.313 57.9737C199.268 56.6392 200.302 55.6926 202.034 55.5095C202.192 55.4955 202.31 55.4971 202.426 55.4638C203.116 55.2952 203.558 53.9703 203.936 52.9081C204.463 51.4146 205.285 49.1383 205.285 49.1383C205.285 49.1383 203.097 48.6324 201.925 48.1892C200.617 47.6954 199.628 47.0571 199.037 45.8551C198.327 44.4483 198.794 43.6679 200.261 43.2126C200.8 43.0392 205.047 42.2226 206.389 42.0323C208.063 41.7866 209.639 41.577 211.231 41.3795C212.616 41.2109 218.971 40.4738 220.993 40.5268C224.077 40.6158 226.078 41.8878 227.879 44.5013C228.848 45.896 229.51 47.5533 228.048 48.4518C225.801 49.8176 218.523 49.9212 217.188 49.9356C215.065 49.9574 212.128 49.9216 212.128 49.9216L210.646 54.8813C210.646 54.8813 215.861 54.8258 218.79 54.8139C219.502 54.8139 220.214 54.8524 220.613 54.9368C222.109 55.2692 222.626 56.4206 222.687 58.0803C222.768 60.0218 222.403 60.9155 220.859 61.1756C220.06 61.3032 211.103 61.3563 209.889 61.4984C209.131 61.5803 208.33 61.7007 208.33 61.7007C208.33 61.7007 207.683 63.3917 207.12 65.0995C206.553 66.8797 206.067 68.6935 206.067 68.6935C206.067 68.6935 206.522 68.7128 206.899 68.7128C207.529 68.7178 208.169 68.6261 208.669 68.5394C211.402 68.0383 215.464 67.4361 218.797 66.911C220.589 66.6243 221.491 66.4967 222.434 67.6866C223.249 68.7393 223.673 69.6209 223.73 70.8927C223.781 72.0899 222.869 72.8824 221.756 73.7351C218.232 76.433 212.21 79.3573 207.722 79.8583C205.648 80.092 205.143 79.8613 203.328 79.3862C202.981 79.2972 201.726 78.7093 201.738 78.6467C201.738 78.6467 201.057 78.1932 200.826 78.0125Z" fill="#02284B"/>
<path d="M40.389 50.5521C40.389 50.5521 36.8102 50.8051 34.3521 51.0797C31.2182 51.4145 25.3328 52.4334 21.9416 53.6546C20.9194 54.0112 18.8486 54.8807 18.6682 55.9262C18.4854 57.0198 19.154 57.8652 19.9068 58.7493C20.3398 59.2575 22.793 61.6206 23.4785 62.1963C26.3622 64.6027 32.2067 68.3243 36.5191 70.1309C37.9911 70.7451 40.4395 71.6219 40.4395 71.6219C40.4395 71.6219 40.2567 64.6436 40.2928 57.7713C40.3068 54.1388 40.389 50.5521 40.389 50.5521ZM105.956 53.3295C106.162 55.2035 105.677 58.7493 105.597 59.2166C105.443 60.2933 104.63 62.7768 104.5 63.0827C103.844 64.5882 103.202 65.8336 102.514 67.0645C101.34 69.1794 98.5549 72.53 96.8954 73.9633C90.743 79.2915 81.2139 82.3266 73.0364 83.3263C67.4925 83.9984 61.1189 83.8948 55.2384 82.8084C53.218 82.435 50.2116 81.7461 50.2116 81.7461C50.2116 81.7461 50.2178 82.9505 50.1202 83.8008C50.0746 84.1814 49.7811 85.2028 49.62 85.5328C49.1895 86.4168 48.4895 86.8721 47.4722 87.0648C46.2407 87.3008 44.9347 87.3707 43.7947 86.8889C41.9283 86.0964 41.2549 84.3428 40.9326 82.3339C40.668 80.7152 40.3915 77.9041 40.3915 77.9041C40.3915 77.9041 38.9965 77.2441 37.83 76.6611C34.2511 74.8931 30.8478 72.7589 27.8775 70.5524C27.0549 69.943 23.5146 66.9705 22.7305 66.2286C20.5394 64.1546 18.5696 62.0783 17.0688 59.4189C15.9023 57.3425 15.568 55.495 16.4531 53.2958C17.6797 50.2294 22.0691 47.9145 25.0755 46.5969C27.2858 45.6213 34.1429 43.3787 36.9954 42.9644C38.3399 42.7717 40.4275 42.4007 40.555 42.314C40.6078 42.2755 40.6464 42.2417 40.6824 42.1961C40.7474 42.1021 40.858 39.0622 40.8364 37.9542C40.8123 36.8606 41.6445 29.6896 41.9115 28.1744C42.0558 27.3482 42.6763 24.1903 43.3113 23.3641C43.7226 22.8052 44.4561 22.8438 45.0526 23.2171C48.3212 25.2477 49.3121 32.3103 49.555 35.9042C49.7017 38.0914 49.7739 41.3842 49.7739 41.3842C49.7739 41.3842 53.5235 41.2759 55.8324 41.336C58.0716 41.3915 60.5417 41.748 62.8699 42.1189C65.8499 42.591 71.6558 43.8605 74.9846 45.5539C77.7288 46.9437 80.2927 49.2923 81.1225 51.7758C81.8969 54.0521 81.7791 55.6227 80.603 57.6774C79.2826 59.9994 76.7788 61.7193 74.2414 61.8615C73.4838 61.912 70.6433 61.5314 69.7702 60.8546C69.4239 60.58 69.4431 60.0934 69.6932 59.7634C69.787 59.643 71.1122 58.9468 71.8987 58.5277C72.2907 58.3133 72.6178 58.0845 72.9209 57.805C73.5751 57.2245 74.1595 56.5934 74.0946 55.8563C74.0032 54.8928 72.9906 54.2978 72.0189 53.9172C67.4732 52.1106 58.3962 50.6051 54.0044 50.345C52.2872 50.2438 49.8484 50.1571 49.8484 50.1571L50.363 74.4185C50.363 74.4185 52.3834 74.8063 53.9732 75.0665C54.8895 75.2014 58.757 75.5507 59.784 75.5772C67.6127 75.7843 76.3506 75.0858 83.5347 71.6822C86.6879 70.1959 89.5813 68.3484 91.7699 65.8456C94.6609 62.5239 96.1737 57.9905 95.7721 53.2548C95.332 48.0711 91.693 41.9334 88.7924 38.1926C81.1176 28.3044 67.9639 20.1795 56.3951 15.4149C44.5787 10.5516 32.9041 7.7477 20.3613 7.28038C17.1312 7.16477 10.0794 7.32858 6.52216 8.31618C6.00746 8.4582 5.49757 8.63174 5.02376 8.73291C4.64856 8.82441 4.06651 9.07255 3.90296 9.20021C3.8163 9.27961 3.72257 9.37366 3.72257 9.37366C3.72257 9.37366 3.94385 9.49408 4.1531 9.58801C4.5307 9.75423 6.12051 9.84819 6.94307 9.99753C7.67422 10.1372 8.44628 10.5299 8.74451 11.0718C9.03314 11.5825 9.07402 11.9848 8.72526 12.4111C7.91713 13.4012 4.87703 13.2277 3.54219 13.0206C2.15201 12.7941 0.422715 12.3726 0.102838 11.1586C-0.262742 9.73015 0.408286 8.33063 1.14186 7.0347C2.6138 4.44524 4.7159 3.0963 7.80409 2.25563C12.1814 1.05124 17.7109 0.205754 21.8477 0.0467539C31.2109 -0.302526 40.069 1.33064 49.1364 4.09355C54.3267 5.66167 61.1284 8.29933 66.0999 10.7009C69.6643 12.4208 75.2923 15.5956 78.4527 17.6696C79.4484 18.3272 85.2809 22.6172 86.1852 23.3712C88.0756 24.9176 90.5505 27.141 92.3351 28.9211C95.7985 32.3584 100.106 37.6241 102.203 41.8009C102.701 42.8078 103.096 43.793 103.74 44.9517C103.964 45.3467 104.924 47.7266 105.082 48.4155C105.239 49.0948 105.47 50.0944 105.503 50.1306C105.551 50.4991 105.989 52.537 105.956 53.3295Z" fill="#02284B"/>
<path d="M107.637 26.0353C107.637 26.0353 108.656 24.5033 109.513 23.3375C111.074 21.2177 113.895 18.279 116.016 16.4579C116.67 15.9039 117.433 15.2704 117.433 15.2704C117.433 15.2704 116.233 15.3956 115.557 15.5354C113.945 15.8509 111.581 17.4239 110.398 18.4404C108.45 20.1073 106.309 22.8244 107.273 25.2332C107.418 25.5801 107.637 26.0353 107.637 26.0353ZM118.469 28.9379C121.548 28.7308 124.434 27.8371 127.116 26.3509C129.749 24.8767 133.619 22.0006 133.225 18.6138C133.098 17.5226 132.386 16.694 131.481 16.3062C130.303 15.7931 129.692 15.8846 128.189 16.3255C127.101 16.6483 126.613 16.841 125.586 17.4311C122.561 19.1895 118.282 22.9497 115.956 25.9535C115.417 26.6568 114.874 27.4493 114.453 27.9889C114.179 28.3189 113.974 28.6296 113.998 28.7139C114.09 29.0584 117.264 29.0247 118.469 28.9379ZM110.626 34.707C110.311 35.0371 109.977 35.856 109.626 36.4462C109.44 36.7593 109.094 37.164 108.868 37.323C108.067 37.9132 107.391 37.9397 106.612 37.2579C105.53 36.304 104.904 34.813 104.859 33.3677C104.835 32.7342 104.938 32.0428 104.825 31.5033C104.625 30.6072 103.726 29.687 103.245 28.8271C102.677 27.8082 102.218 26.0473 102.163 24.9104C101.963 21.3598 103.834 18.0935 106.263 15.5112C108.707 12.9025 111.903 10.7346 115.384 9.26281C118.669 7.87053 123.489 6.92624 127.099 8.18123C128.27 8.58591 129.911 9.58798 130.733 10.631C130.906 10.8526 131.051 11.0935 131.231 11.2067C131.387 11.3078 131.808 11.3489 132.143 11.409C133.297 11.609 134.957 12.481 135.633 13.0615C136.987 14.2394 137.737 15.3643 138.081 16.9951C138.774 20.2734 136.888 23.8746 134.74 26.0618C131.058 29.8364 127.424 32.4836 122.715 34.3336C120.651 35.143 117.43 35.8969 115.083 35.685C114.357 35.6247 113.604 35.4344 112.897 35.3814C112.538 35.35 111.213 35.0153 111.074 34.9093C110.898 34.7816 110.674 34.6613 110.626 34.707ZM114.833 41.9816C114.975 42.008 115.198 42.0731 115.388 42.1406C117.038 42.7717 117.717 44.3037 118.123 45.9803C119.066 49.8825 119.47 58.5085 119.624 61.8928C119.739 64.4221 119.802 66.9248 119.908 69.4275C119.997 71.5497 120.165 74.3728 119.727 76.3649C119.566 77.0803 119.09 77.9041 118.404 78.3353C117.618 78.8363 115.836 78.8749 114.857 78.6726C112.44 78.1715 111.653 76.6154 111.312 74.2235C110.491 68.5122 110.884 57.304 111.369 52.5732C111.526 51.0195 112.117 46.014 112.933 43.9183C113.207 43.2053 113.801 41.7793 114.833 41.9816Z" fill="#02284B"/>
<path d="M146.29 55.0927C146.465 55.1095 146.509 55.1168 146.67 55.1409C149.537 55.5311 152.346 56.0466 154.494 57.0102C156.488 57.8966 157.661 59.0095 158.727 61.0015C160.35 64.0198 160.458 68.2424 158.991 71.4413C157.892 73.8188 155.487 75.8157 153.294 76.8755C151.006 77.9836 148.767 78.5087 146.189 78.8026C141.691 79.2964 136.818 78.3666 132.763 76.401C130.365 75.2279 127.436 73.2094 125.957 70.6054C124.87 68.6928 124.903 66.2142 126.228 64.4028C128.333 61.517 132.843 60.8811 136.246 61.0015C138.839 61.0978 143.5 61.9048 145.965 62.7768C146.651 63.0249 149.164 64.0077 149.602 64.4509C149.909 64.7689 150.114 65.2194 149.974 65.6457C149.407 67.368 145.234 68.2761 144.029 68.4568C140.794 68.9506 139.12 67.7293 135.447 66.2768C134.536 65.9203 133.321 65.5253 132.388 65.4385C130.724 65.2796 128.711 65.7397 128.395 67.5679C128.232 68.5098 129.333 69.3866 130.173 69.7503C132.143 70.6055 133.745 70.9065 135.688 70.9378C141.41 71.0247 147.843 70.0827 152.531 66.7586C153.178 66.3033 153.803 65.6289 153.813 64.7834C153.813 64.6751 153.659 63.7644 153.366 63.6705C153.322 63.6512 153.277 63.6735 153.243 63.6655C153.135 63.6341 152.954 63.3379 152.803 63.1428C152.466 62.7309 151.107 62.1455 150.84 62.0323C147.685 60.7147 141.855 60.074 138.846 59.8259C135.695 59.5561 130.738 59.1369 129.545 58.9635C128.321 58.7901 126.988 58.5468 125.923 58.0674C124.862 57.5857 123.818 56.5065 123.506 55.3142C122.957 53.1607 123.662 50.5158 124.855 48.7911C127.987 44.2818 135.313 42.574 140.794 41.8947C146.097 41.2323 154.669 41.2395 159.876 44.0121C160.682 44.4408 161.096 44.8431 160.923 45.7054C160.586 47.3218 159.364 48.3624 157.899 48.82C156.36 49.3114 153.168 49.5017 151.769 49.5884C145.489 49.9425 137.901 49.7571 131.924 51.3926C131.455 51.5275 130.647 51.7371 130.38 52.0358C129.444 53.0523 132.119 53.3413 132.693 53.4666C132.862 53.5003 132.898 53.5076 133.073 53.5244L146.29 55.0927Z" fill="#02284B"/>
<path d="M165.879 78.6148C163.344 77.6826 162.77 73.5828 162.652 71.5089C162.25 64.757 164.032 55.3626 166.296 49.0347C166.943 47.2329 167.873 44.2894 169.886 44.4556C171.272 44.5785 172.26 45.6479 173.037 46.7464C175.024 49.5526 177.636 53.3561 179.368 56.0034C181.304 58.971 183.163 61.9604 184.991 64.6654C185.214 64.993 185.426 65.311 185.671 65.5133C186.003 65.7807 186.302 65.7952 186.436 65.547C186.499 65.4506 186.378 62.0398 186.294 61.3557C186.152 60.2669 186.088 59.3853 185.965 58.4459C185.628 55.7167 184.76 51.8771 184.079 49.2804C183.329 46.3754 182.412 43.3475 181.727 40.5364C181.508 39.6235 181.304 38.7009 181.311 37.8314C181.317 36.574 182.124 35.8778 183.432 36.3475C186.011 37.258 189.428 42.8633 190.424 44.8097C190.763 45.4673 192.105 48.8107 192.406 49.7477C193.476 52.9586 194.123 56.0033 194.419 59.5033C194.703 62.9046 194.465 67.8595 193.029 71.2125C192.502 72.4458 191.42 74.1055 190.52 74.9413C189.108 76.2517 186.294 77.2755 184.356 76.1674C182.234 74.9631 178.749 68.917 178.155 67.8836C176.133 64.3475 172.652 57.4318 172.114 56.6561C171.996 56.4851 171.842 56.3213 171.573 56.2394C171.368 56.1793 171.286 56.6056 171.233 56.8826C170.887 58.8963 170.649 68.3148 170.644 68.5773C170.586 70.1623 170.509 74.0501 170.052 75.9651C169.754 77.2153 169.451 78.2414 168.304 78.7665C167.489 79.1351 166.868 78.981 165.879 78.6148Z" fill="#02284B"/>
<path d="M257.453 53.0862C255.144 55.0229 252.162 58.971 250.738 61.0208C248.835 63.738 247.046 66.8502 245.333 69.2614C244.965 69.8033 243.861 71.7424 243.9 71.8075C243.977 71.9448 245.088 71.9015 246.23 71.7088C248.662 71.2993 251.969 69.589 253.734 68.1775C256.426 66.0168 258.299 63.0491 259.185 59.578C259.577 58.0003 259.776 54.693 258.66 53.2212C258.441 52.9394 257.883 52.7177 257.453 53.0862ZM239.116 81.4427C239.116 81.4427 238.385 83.5914 237.849 85.2776C236.923 88.1874 234.885 96.0232 234.414 98.4585C233.704 102.072 231.684 111.541 231.581 111.743C231.439 112.018 231.345 112.104 231.004 112.324C230.171 112.813 229.837 112.651 228.829 112.112C227.521 111.423 226.371 110.719 225.39 109.421C223.418 106.856 223.889 102.028 224.274 99.1956C225.628 89.2882 226.997 84.9307 230.761 75.0691C230.823 74.9004 230.823 74.8619 230.747 74.7125C229.573 72.2098 228.94 69.1868 228.94 66.7442C228.949 59.0144 233.385 51.3664 238.359 45.224C238.734 44.7567 241.175 41.8276 242.284 41.8854C243.395 41.9384 243.576 43.2367 243.41 44.3207C242.852 47.8905 240.343 51.5278 238.628 54.5388C236.699 57.9039 236.281 59.289 235.338 62.3747C235.186 62.8564 234.809 65.1111 234.826 65.4001C234.864 66.2287 235.045 67.2742 235.045 67.2742C235.045 67.2742 238.181 62.8757 240.252 60.161C241.382 58.6699 242.195 57.6847 243.138 56.6224C244.093 55.5433 247.77 51.7157 248.828 50.7064C251.053 48.5795 252.039 47.6954 254.444 46.4452C256.352 45.4576 258.064 45.2119 259.923 46.4422C262.872 48.3813 264.156 52.4835 264.488 55.8101C264.876 59.7846 264.065 64.2553 262.314 67.659C260.238 71.7202 257.403 74.6445 253.547 77.2026C249.605 79.8186 244.98 81.5987 240.444 81.4927C239.831 81.4787 239.116 81.4427 239.116 81.4427Z" fill="#02284B"/>
<path d="M133.44 101V88.3999H135.942L139.596 96.5719H139.632L143.286 88.3999H145.806V101H143.43V93.2599H143.394L139.812 101H139.416L135.834 93.2599H135.798V101H133.44Z" fill="#02284B"/>
<path d="M158.988 101L158.268 98.9299H153.462L152.742 101H150.33L154.884 88.3999H156.954L161.49 101H158.988ZM155.856 91.9999L154.146 96.9139H157.584L155.892 91.9999H155.856Z" fill="#02284B"/>
<path d="M165.838 101V88.3999H168.268V93.6919H168.304L172.768 88.3999H175.594L170.878 93.9619L175.972 101H173.038L169.24 95.8159H169.204L168.268 97.0579V101H165.838Z" fill="#02284B"/>
<path d="M180.233 101V88.3999H188.207V90.6499H182.663V93.4759H187.703V95.6359H182.663V98.7499H188.207V101H180.233Z" fill="#02284B"/>
<path d="M193.639 101V88.3999H198.751C200.047 88.3999 201.091 88.7659 201.883 89.4979C202.687 90.2179 203.089 91.1899 203.089 92.4139C203.089 93.3259 202.849 94.0999 202.369 94.7359C201.901 95.3719 201.253 95.8219 200.425 96.0859L203.107 101H200.479L197.941 96.3199H196.069V101H193.639ZM196.069 94.2139H198.553C199.933 94.2139 200.623 93.6139 200.623 92.4139C200.623 91.2019 199.933 90.5959 198.553 90.5959H196.069V94.2139Z" fill="#02284B"/>
</svg>
