<svg width="50vw" height="80vh" viewBox="0 0 578 446" fill="none" xmlns="http://www.w3.org/2000/svg">
  <path stroke="currentColor" stroke-width="2" class="svg-dash" d="M138.358 4.39663L138.353 4.39235C134.141 0.595652 127.76 0.523731 123.493 4.25385C61.9113 57.989 -6.43111 168.942 3.46053 304.896C9.28306 385.088 67.6797 443.5 142.46 443.5C219.131 443.5 281.5 380.961 281.5 304.084C281.5 230.364 224.145 169.827 151.826 164.971C150.799 150.806 152.652 115.033 186.546 65.6962C189.616 61.2369 189.058 55.2253 185.245 51.4034C171.952 38.0734 163.356 29.306 157.212 23.0396C156.731 22.5496 156.266 22.0749 155.815 21.6145C147.634 13.2496 143.866 9.40416 138.358 4.39663Z" stroke="currentColor"/>
  <path stroke="currentColor" stroke-width="2" class="svg-dash-alt" d="M433.358 4.39663L433.353 4.39235C429.141 0.595652 422.76 0.523731 418.493 4.25385C356.911 57.989 288.569 168.942 298.461 304.896C304.283 385.088 362.68 443.5 437.46 443.5C514.131 443.5 576.5 380.961 576.5 304.084C576.5 230.364 519.145 169.827 446.826 164.971C445.799 150.806 447.652 115.033 481.546 65.6962C484.616 61.2369 484.058 55.2253 480.245 51.4034C466.952 38.0734 458.356 29.306 452.212 23.0396C451.731 22.5496 451.266 22.0749 450.815 21.6145C442.634 13.2496 438.866 9.40416 433.358 4.39663Z" />
</svg>
