<svg class="hero-svg-animation" height="100vh" viewBox="0 0 874 900" fill="none" xmlns="http://www.w3.org/2000/svg">
<path d="M875.5 349.954V348.438L873.984 348.454C797.005 349.274 725.711 359.05 659.299 376.168L613.706 262.117L613.705 262.115L509.196 -0.554532L508.82 -1.5H507.802H364.615H363.599L363.222 -0.556572L3.60708 899.443L2.78533 901.5H5H197.562H198.216L198.661 901.021C211.757 886.931 225.945 870.717 241.392 853.065C316.147 767.636 420.373 648.53 572.848 573.512L704.734 900.561L705.113 901.5H706.125H868.24H870.456L869.632 899.443L718.042 520.644C766.818 509.36 818.007 502 874 502H875.5V500.5V349.954ZM308.037 553.589L436.202 233.783L485.835 358.742L485.836 358.745L513.28 427.395C435.79 461.929 367.626 506.51 308.037 553.589Z" stroke="currentColor" />
</svg>
