<svg width="143" height="32" viewBox="0 0 143 32" fill="none" xmlns="http://www.w3.org/2000/svg">
<g clip-path="url(#clip0)">
<path d="M41.2915 8.09805C39.6893 6.3677 37.8581 5.74477 35.5234 5.74477C34.2187 5.74477 32.9598 6.0447 31.7925 6.57534C28.0157 8.25955 25.8184 11.9048 25.8184 16.0115C25.8184 21.4794 29.9613 26.2091 35.5234 26.2091C37.8581 26.2091 40.3302 25.2632 41.5891 23.2329H41.6578V26.2091H45.8465V0H41.2915V8.09805V8.09805ZM36.0041 22.0101C32.6852 22.0101 30.3733 19.0339 30.3733 15.85C30.3733 12.8046 32.914 9.96683 36.0041 9.96683C39.2315 9.96683 41.6349 12.8508 41.6349 15.9885C41.6349 19.1262 39.2315 22.0101 36.0041 22.0101Z" fill="#FECA30"/>
<path d="M65.0286 8.81325H64.9599C64.7768 8.53639 64.4793 8.23646 64.2733 8.02882C62.7397 6.5984 60.7483 5.74475 58.6425 5.74475C53.0117 5.74475 49.0977 10.3821 49.0977 15.8731C49.0977 21.341 52.6226 26.2091 58.3678 26.2091C60.7025 26.2091 63.5179 25.0094 65.0286 23.2098V26.2091H69.2174V6.39075H65.0286V8.81325ZM59.3292 22.0101C56.0789 22.0101 53.6755 19.3107 53.6755 16.1038C53.6755 12.8277 55.9416 9.98989 59.3292 9.98989C62.6939 9.98989 64.8913 12.6892 64.8913 15.9654C64.8913 19.2415 62.7168 22.0101 59.3292 22.0101Z" fill="#FECA30"/>
<path d="M82.8829 5.74475C80.3879 5.74475 78.2821 6.64454 76.7027 8.65175H76.6341V6.39075H72.4453V32H77.0003V23.7635C78.7857 25.4939 80.3192 26.2321 82.86 26.2321C88.445 26.2321 92.4048 21.3641 92.4048 15.9192C92.4277 10.4513 88.4907 5.74475 82.8829 5.74475ZM82.3106 22.0101C81.5324 22.0101 80.777 21.8024 80.0904 21.4564C77.893 20.4643 76.7714 18.3879 76.7714 15.9884C76.7714 12.7815 79.1061 9.96682 82.4022 9.96682C85.6296 9.96682 87.8956 12.92 87.8956 15.9884C87.8727 19.1031 85.538 22.0101 82.3106 22.0101Z" fill="#FECA30"/>
<path d="M100.05 0H95.4722V6.39077H93.252V10.4744H95.4722V26.2322H100.05V10.4744H102.797V6.39077H100.05V0Z" fill="#FECA30"/>
<path d="M110.602 0H106.047V4.22206H110.602V0Z" fill="#FECA30"/>
<path d="M110.602 6.39076H106.047V26.2091H110.602V6.39076Z" fill="#FECA30"/>
<path d="M129.783 8.81325H129.714C129.531 8.53639 129.233 8.23646 129.027 8.02882C127.494 6.5984 125.502 5.74475 123.396 5.74475C117.766 5.74475 113.852 10.3821 113.852 15.8731C113.852 21.341 117.377 26.2091 123.122 26.2091C125.456 26.2091 128.272 25.0094 129.783 23.2098V26.2091H133.971V6.39075H129.783V8.81325ZM124.083 22.0101C120.833 22.0101 118.429 19.3107 118.429 16.1038C118.429 12.8277 120.695 9.98989 124.083 9.98989C127.448 9.98989 129.645 12.6892 129.645 15.9654C129.645 19.2415 127.471 22.0101 124.083 22.0101Z" fill="#FECA30"/>
<path d="M137.244 7.29054H137.816V9.94375H138.412V7.29054H139.007V6.73683H137.244V7.29054Z" fill="#FECA30"/>
<path d="M142.006 6.73683L141.159 9.15933L140.312 6.73683H139.488V9.94375H140.083V7.54433H140.106L140.907 9.94375H141.411L142.212 7.54433H142.235V9.94375H142.83V6.73683H142.006Z" fill="#FECA30"/>
<path d="M11.994 6.62145L13.436 10.1975L15.8165 16.1961L19.7764 14.7656L16.9152 7.5443L13.9854 0.184532H10.0026L0 25.4015H1.23602H4.4863H5.33321C7.46191 23.0944 10.6664 18.7339 15.7936 16.1961L19.4788 25.4015H23.988L19.7764 14.7656C21.1268 14.4426 22.5917 14.235 24.194 14.235V9.98987C17.4417 10.036 12.2 12.7354 8.3546 15.8269L11.994 6.62145Z" fill="#FECA30"/>
</g>
<defs>
<clipPath id="clip0">
<rect width="142.829" height="32" fill="white"/>
</clipPath>
</defs>
</svg>
